<svg version="1" xmlns="http://www.w3.org/2000/svg" width="240" height="240" viewBox="0 0 180.000000 180.000000"><path d="M0 90v90h180V0H0v90zm108.6-68.9l4.1-.1.6 10.2c.4 5.5.4 10.5.1 10.9-1.2 2-3.2.6-4.3-3.1-1.6-5.2-7.1-10.7-11.6-11.6-2-.3-6.3-.4-9.7-.2-5.5.4-6.4.8-9.4 4.1-2.7 2.9-3.4 4.5-3.4 7.8 0 7.7 2.6 10.6 19.5 21.6 14.4 9.4 19.7 14 22.6 19.5 2.3 4.4 2.5 13.3.5 18.2-1.8 4.3-7.1 10.3-10.9 12.2l-2.9 1.6 5.7 5.1c6.9 6.1 9.4 11.2 9.5 18.6 0 10.2-6.8 19.2-17.4 22.8-6.8 2.3-23.4 2.1-33.1-.4l-7-1.8.3-6.5c.6-9.9 1.6-14.4 3.3-14.8 1.1-.2 1.9 1.2 2.9 5 2.4 9.6 10.6 14.7 21.3 13.4 9.8-1.1 16.2-7.6 15.5-15.6-.3-2.5-1.3-5.8-2.3-7.3-2.4-3.7-22.1-16.7-25.2-16.7-3.9 0-15.4-3.2-15.8-4.4-.2-.6.1-5.4.8-10.6.9-7.3 1.6-9.5 2.8-9.8 1.2-.2 1.9.9 2.7 4 2.5 9.6 7 13.7 15.9 14.5 8.2.7 13.4-.9 17.7-5.7 3-3.4 3.6-4.7 3.6-8.6 0-7.5-2.4-10.1-19.8-21.7-17-11.3-20.2-14.6-22.3-23-2.1-8.6 2-18.6 10.1-24.2 5.7-4 8.5-4.5 20.5-3.9 6.1.3 12.8.5 15.1.5z"/></svg>