<?xml version="1.0" standalone="no"?>
<!DOCTYPE svg PUBLIC "-//W3C//DTD SVG 20010904//EN"
 "http://www.w3.org/TR/2001/REC-SVG-20010904/DTD/svg10.dtd">
<svg version="1.0" xmlns="http://www.w3.org/2000/svg"
 width="1000.000000pt" height="1000.000000pt" viewBox="0 0 1000.000000 1000.000000"
 preserveAspectRatio="xMidYMid meet">
<metadata>
Created by potrace 1.11, written by Peter Selinger 2001-2013
</metadata>
<g transform="translate(0.000000,1000.000000) scale(0.100000,-0.100000)"
fill="#000000" stroke="none">
<path d="M4838 8916 c-1 -2 -36 -7 -76 -10 -40 -4 -78 -9 -85 -11 -7 -2 -30
-7 -51 -10 -120 -17 -320 -85 -435 -148 -253 -137 -483 -374 -605 -622 -43
-88 -91 -223 -101 -288 -3 -17 -7 -43 -10 -57 -28 -148 -17 -374 26 -545 33
-130 126 -318 214 -431 48 -62 224 -236 295 -291 76 -59 277 -193 290 -193 5
0 10 -3 12 -7 2 -5 35 -29 73 -54 39 -25 164 -108 280 -184 878 -578 870 -572
997 -725 192 -233 235 -554 108 -825 -122 -262 -379 -441 -700 -489 -110 -16
-148 -19 -275 -18 -117 0 -228 9 -305 25 -66 14 -93 21 -145 39 -331 112 -498
348 -616 869 -17 79 -33 146 -35 148 -1 1 -27 -8 -56 -22 -29 -14 -74 -34
-100 -46 l-48 -21 -1 -78 c-1 -85 -4 -153 -14 -282 -5 -80 -9 -115 -20 -200
-2 -19 -7 -60 -10 -90 -3 -30 -8 -62 -10 -70 -2 -8 -7 -35 -10 -60 -3 -25 -8
-56 -10 -70 -3 -14 -7 -38 -10 -55 -3 -16 -7 -41 -10 -55 -15 -74 -26 -142
-23 -144 39 -30 493 -165 607 -182 20 -3 42 -7 49 -9 15 -6 130 -24 187 -31
22 -3 51 -7 65 -9 14 -3 52 -7 85 -11 33 -3 69 -7 81 -9 18 -3 124 -71 699
-451 83 -54 154 -101 159 -103 6 -2 48 -31 94 -64 335 -237 475 -520 426 -858
-37 -251 -214 -481 -464 -601 -56 -27 -199 -74 -248 -82 -230 -36 -435 -36
-627 1 -373 72 -567 258 -704 678 -28 87 -82 308 -85 350 -2 28 -27 23 -129
-24 l-86 -40 1 -53 c1 -60 -10 -282 -17 -345 -3 -24 -7 -62 -10 -85 -13 -127
-18 -165 -20 -180 -2 -9 -7 -38 -11 -65 -3 -26 -8 -55 -9 -63 -2 -8 -6 -35
-10 -60 -3 -25 -15 -89 -26 -144 -10 -54 -19 -100 -19 -102 0 -12 348 -130
439 -149 9 -2 68 -15 131 -29 63 -14 131 -28 150 -30 19 -3 46 -8 60 -10 45
-8 99 -16 152 -21 29 -3 62 -8 73 -10 123 -25 717 -26 885 -2 332 47 559 127
779 275 75 50 250 212 306 282 119 151 233 378 260 518 2 13 6 31 9 40 32 102
27 407 -8 527 -1 6 -9 30 -16 55 -7 25 -14 51 -16 58 -7 39 -120 249 -172 321
-97 135 -248 288 -387 394 -5 4 -26 20 -46 35 -21 16 -81 57 -134 93 l-97 64
41 18 c22 10 42 17 43 17 9 -4 185 100 250 147 115 83 257 233 354 373 85 124
164 314 190 455 24 136 30 317 14 405 -4 25 -11 63 -14 84 -4 22 -20 79 -36
127 -83 249 -254 480 -505 682 -98 79 -378 267 -1005 675 -519 338 -616 412
-728 560 -158 211 -215 470 -152 700 31 112 81 195 175 287 103 102 101 100
198 145 106 48 179 68 312 85 55 7 291 7 340 0 259 -36 429 -107 575 -242 140
-129 268 -365 345 -633 10 -36 19 -66 20 -68 2 -3 61 21 122 49 24 10 47 19
52 19 24 0 32 29 22 91 -52 338 -75 612 -75 927 l-1 183 -44 -6 c-25 -3 -47
-8 -51 -10 -21 -13 -152 -28 -245 -28 -71 0 -206 14 -275 28 -24 6 -95 20
-135 29 -11 2 -40 7 -65 12 -25 4 -47 8 -50 9 -3 1 -32 5 -65 9 -33 5 -71 11
-85 13 -30 5 -406 13 -412 9z"/>
</g>
</svg>
